<svg width="100" height="125" xmlns="http://www.w3.org/2000/svg" xml:space="preserve" enable-background="new 0 0 100 100" version="1.1">

 <g>
  <title>Layer 1</title>
  <g id="svg_1" display="none">
   <g id="svg_2" opacity="0.3" display="inline">
    <polygon id="svg_3" points="18.96,11.204     18.96,88.796 81.04,88.796 81.04,24.543 67.701,11.204   " stroke-miterlimit="10" stroke-linejoin="round" stroke-width="4" stroke="#000000" fill="none"/>
    <polygon id="svg_4" points="67.701,11.204     81.04,24.543 67.701,24.543   " stroke-miterlimit="10" stroke-linejoin="round" stroke-width="4" stroke="#000000" fill="none"/>
   </g>
  </g>
  <g id="svg_5" display="none">
   <g id="svg_6" opacity="0.3" display="inline">
    <path id="svg_7" d="m30.811,60.449l2.583,0l8.549,-23.861l4.293,0l8.549,23.861l2.583,0l0,2.963l-9.309,0l0,-2.963l2.85,0l-2.09,-5.965l-9.499,0l-2.09,5.965l2.888,0l0,2.963l-9.309,0l0,-2.963l0.002,0zm17.06,-9.005l-3.268,-9.309c-0.38,-1.102 -0.456,-2.052 -0.456,-2.052l-0.114,0c0,0 -0.114,0.95 -0.456,2.052l-3.306,9.309l7.6,0z"/>
    <path id="svg_8" d="m59.462,60.562l3.001,0l0,-13.525l-3.191,0l0,-2.85l6.877,0l0,16.375l3.04,0l0,2.85l-9.727,0l0,-2.85zm2.926,-23.974l3.875,0l0,3.762l-3.875,0l0,-3.762z"/>
   </g>
  </g>
  <g id="svg_9">
   <g id="svg_10">
    <g id="svg_11">
     <g id="svg_12">
      <path id="svg_13" d="m19.958,88c-0.662,-12.436 -0.312,-25.045 -0.222,-37.497c0.048,-6.676 0.09,-13.356 0.181,-20.032c0.088,-6.474 -0.317,-13.21 0.374,-19.638c0.155,-1.442 -2.097,-1.427 -2.25,0c-0.625,5.806 -0.384,11.986 -0.333,17.833c0.058,6.662 -0.081,13.345 -0.199,20.007c-0.233,13.037 -0.493,26.306 0.199,39.327c0.077,1.443 2.328,1.451 2.25,0l0,0z"/>
     </g>
    </g>
    <g id="svg_14">
     <g id="svg_15">
      <path id="svg_16" d="m19.833,11.792c7.524,0.937 15.306,0.113 22.885,0.302c4.577,0.114 9.153,0.24 13.73,0.317c4.013,0.068 8.075,-0.506 12.051,-0.286c1.45,0.08 1.443,-2.17 0,-2.25c-3.342,-0.185 -6.723,0.339 -10.089,0.312c-4.578,-0.038 -9.155,-0.172 -13.731,-0.292c-8.209,-0.214 -16.702,0.661 -24.846,-0.353c-1.437,-0.179 -1.42,2.073 0,2.25l0,0z"/>
     </g>
    </g>
    <g id="svg_17">
     <g id="svg_18">
      <path id="svg_19" d="m18.667,90.292c20.961,0.002 41.895,0.672 62.833,0.667c1.451,0 1.451,-2.25 0,-2.25c-20.938,0.006 -41.872,-0.665 -62.833,-0.667c-1.451,0 -1.451,2.25 0,2.25l0,0z"/>
     </g>
    </g>
    <g id="svg_20">
     <g id="svg_21">
      <path id="svg_22" d="m82.458,90c-0.02,-11.581 -0.354,-23.158 -0.367,-34.738c-0.013,-10.383 0.522,-20.799 0.201,-31.095c-0.045,-1.447 -2.295,-1.452 -2.25,0c0.321,10.285 -0.177,20.721 -0.201,31.095c-0.026,11.58 0.348,23.157 0.367,34.738c0.003,1.451 2.253,1.451 2.25,0l0,0z"/>
     </g>
    </g>
    <g id="svg_23">
     <g id="svg_24">
      <path id="svg_25" d="m67.696,11.901c1.491,2.063 3.35,3.739 5.367,5.277c2.66,2.028 4.519,4.557 6.809,6.951c1.004,1.05 2.593,-0.543 1.591,-1.591c-1.82,-1.903 -3.312,-4.068 -5.32,-5.789c-2.264,-1.939 -4.728,-3.525 -6.504,-5.983c-0.842,-1.164 -2.795,-0.043 -1.943,1.135l0,0z"/>
     </g>
    </g>
    <g id="svg_26">
     <g id="svg_27">
      <path id="svg_28" d="m66.208,12.5c0.474,3.98 0.234,8.011 0,12c-0.035,0.596 0.538,1.147 1.125,1.125c4.443,-0.169 8.911,-0.175 13.333,0.333c1.44,0.166 1.424,-2.086 0,-2.25c-4.423,-0.509 -8.89,-0.503 -13.333,-0.333c0.375,0.375 0.75,0.75 1.125,1.125c0.234,-3.989 0.474,-8.02 0,-12c-0.169,-1.422 -2.421,-1.439 -2.25,0l0,0z"/>
     </g>
    </g>
   </g>
   <g id="svg_29">
    <g id="svg_30">
     <path id="svg_31" d="m31.201,62.585c2.649,0.641 5.341,-0.106 8,0.333c1.418,0.235 2.027,-1.933 0.598,-2.17c-2.648,-0.438 -5.394,0.297 -8,-0.333c-1.41,-0.341 -2.008,1.829 -0.598,2.17l0,0z"/>
    </g>
   </g>
   <g id="svg_32">
    <g id="svg_33">
     <path id="svg_34" d="m48.966,62.918c2.241,-0.596 4.593,0 6.868,0.04c1.452,0.026 1.449,-2.224 0,-2.25c-2.504,-0.044 -4.994,-0.617 -7.465,0.04c-1.402,0.373 -0.807,2.544 0.597,2.17l0,0z"/>
    </g>
   </g>
   <g id="svg_35">
    <g id="svg_36">
     <path id="svg_37" d="m60.167,62.792c2.741,0.211 5.596,0.683 8.299,-0.04c1.4,-0.375 0.806,-2.545 -0.598,-2.17c-2.478,0.663 -5.188,0.154 -7.701,-0.04c-1.448,-0.112 -1.437,2.139 0,2.25l0,0z"/>
    </g>
   </g>
   <g id="svg_38">
    <g id="svg_39">
     <path id="svg_40" d="m60,46.958c1.663,-0.167 3.336,0.146 5,0.167c1.452,0.018 1.45,-2.232 0,-2.25c-1.664,-0.02 -3.337,-0.333 -5,-0.167c-1.43,0.144 -1.443,2.396 0,2.25l0,0z"/>
    </g>
   </g>
   <g id="svg_41">
    <g id="svg_42">
     <path id="svg_43" d="m63.708,47.167c0.214,4.279 0.018,8.553 0,12.833c-0.006,1.451 2.244,1.451 2.25,0c0.018,-4.281 0.214,-8.555 0,-12.833c-0.072,-1.444 -2.322,-1.451 -2.25,0l0,0z"/>
    </g>
   </g>
   <g id="svg_44">
    <g id="svg_45">
     <path id="svg_46" d="m63.042,38.167c0,0.056 0,0.111 0,0.167c0,1.451 2.25,1.451 2.25,0c0,-0.056 0,-0.111 0,-0.167c0,-1.452 -2.25,-1.452 -2.25,0l0,0z"/>
    </g>
   </g>
   <g id="svg_47">
    <g id="svg_48">
     <path id="svg_49" d="m35.418,60.799c1.64,-4.144 2.638,-8.516 4.38,-12.62c1.589,-3.742 3.641,-7.25 5.12,-11.047c0.527,-1.354 -1.649,-1.935 -2.17,-0.598c-1.64,4.21 -4.177,8.073 -5.667,12.333c-1.316,3.766 -2.365,7.622 -3.833,11.333c-0.534,1.352 1.643,1.932 2.17,0.599l0,0z"/>
    </g>
   </g>
   <g id="svg_50">
    <g id="svg_51">
     <path id="svg_52" d="m43.196,38.234c2.254,3.606 3.366,7.666 4.926,11.587c1.472,3.699 3.44,7.163 4.627,10.978c0.43,1.381 2.602,0.792 2.17,-0.598c-1.329,-4.271 -3.517,-8.187 -5.167,-12.333c-1.465,-3.684 -2.495,-7.38 -4.614,-10.769c-0.766,-1.227 -2.714,-0.099 -1.942,1.135l0,0z"/>
    </g>
   </g>
   <g id="svg_53">
    <g id="svg_54">
     <path id="svg_55" d="m38.466,53.751c1.94,-0.33 3.898,-0.026 5.848,-0.185c1.706,-0.139 3.727,-0.747 5.388,-0.148c1.368,0.493 1.952,-1.681 0.598,-2.17c-1.702,-0.614 -3.664,-0.196 -5.408,0.007c-2.342,0.272 -4.686,-0.071 -7.022,0.326c-1.431,0.244 -0.823,2.412 0.596,2.17l0,0z"/>
    </g>
   </g>
  </g>
 </g>
</svg>