<svg width="128" height="160" xmlns="http://www.w3.org/2000/svg" data-name="Layer 1">
 <title>95 Miscellaneous 20 solid</title>

 <g>
  <title>Layer 1</title>
  <path id="svg_1" d="m119,29.12l-51,-28.2a9.24,9.24 0 0 0 -8,0l-51,28.2a8.48,8.48 0 0 0 -4,6.68l0,56.4a8.46,8.46 0 0 0 4,6.68l51,28.2a9.24,9.24 0 0 0 8,0l51,-28.2a8.46,8.46 0 0 0 4,-6.68l0,-56.4a8.48,8.48 0 0 0 -4,-6.68zm-24,60.06a9.88,9.88 0 0 1 -6.34,9.21a9.67,9.67 0 0 1 -10.77,-2.82l-25.44,-30l0,23.36a9.73,9.73 0 1 1 -19.45,0l0,-49.93a9.86,9.86 0 0 1 6.34,-9.21a9.57,9.57 0 0 1 3.38,-0.61a9.67,9.67 0 0 1 7.39,3.43l25.44,30l0,-23.79a9.73,9.73 0 1 1 19.45,0l0,50.36z"/>
 </g>
</svg>