<svg width="100" height="125" xmlns="http://www.w3.org/2000/svg" xml:space="preserve" enable-background="new 0 0 100 100" version="1.1">

 <g>
  <title>Layer 1</title>
  <g id="svg_1" display="none">
   <g id="svg_2" opacity="0.3" display="inline">
    <polygon id="svg_3" points="18.96,11.204     18.96,88.796 81.04,88.796 81.04,24.543 67.701,11.204   " stroke-miterlimit="10" stroke-linejoin="round" stroke-width="4" stroke="#000000" fill="none"/>
    <polygon id="svg_4" points="67.701,11.204     81.04,24.543 67.701,24.543   " stroke-miterlimit="10" stroke-linejoin="round" stroke-width="4" stroke="#000000" fill="none"/>
   </g>
  </g>
  <g id="svg_5" display="none">
   <g id="svg_6" opacity="0.3" display="inline">
    <path id="svg_7" d="m30.317,60.221l3.344,0l0,-20.935l-3.344,0l0,-2.926l12.5,0c1.634,0 3.268,0.114 4.598,0.722c2.773,1.178 4.559,4.027 4.559,7.599c0,3.762 -1.976,6.801 -5.053,7.865c-1.254,0.456 -2.545,0.57 -4.027,0.57l-5.434,0l0,7.105l3.381,0l0,2.963l-10.524,0l0,-2.963zm12.12,-10.221c1.216,0 2.166,-0.19 3.001,-0.532c1.71,-0.76 2.698,-2.47 2.698,-4.788c0,-2.166 -0.874,-3.761 -2.394,-4.559c-0.836,-0.456 -1.976,-0.646 -3.268,-0.646l-5.014,0l0,10.525l4.977,0z"/>
    <path id="svg_8" d="m54.448,56.991l3.229,0l0,1.253c0,1.634 2.279,2.394 4.407,2.394c2.166,0 3.875,-0.874 3.875,-2.47c0,-1.938 -2.128,-2.546 -4.788,-3.496c-2.85,-1.064 -6.003,-2.355 -6.003,-5.851c0,-3.799 3.761,-5.319 7.105,-5.319c2.698,0 6.649,1.064 6.649,3.875l0,2.318l-3.229,0l0,-1.254c0,-1.178 -1.52,-1.976 -3.381,-1.976c-1.824,0 -3.419,0.76 -3.419,2.318c0,1.824 2.127,2.583 4.445,3.381c2.963,0.988 6.345,2.242 6.345,5.813c0,3.647 -3.343,5.661 -7.713,5.661c-3.495,0 -7.522,-1.558 -7.522,-4.598l0,-2.049z"/>
   </g>
  </g>
  <g id="svg_9">
   <g id="svg_10">
    <g id="svg_11">
     <g id="svg_12">
      <path id="svg_13" d="m19.958,88c-0.662,-12.436 -0.312,-25.045 -0.222,-37.497c0.048,-6.676 0.09,-13.356 0.181,-20.032c0.088,-6.474 -0.317,-13.21 0.374,-19.638c0.155,-1.442 -2.097,-1.427 -2.25,0c-0.625,5.806 -0.384,11.986 -0.333,17.833c0.058,6.662 -0.081,13.345 -0.199,20.007c-0.233,13.037 -0.493,26.306 0.199,39.327c0.077,1.443 2.328,1.451 2.25,0l0,0z"/>
     </g>
    </g>
    <g id="svg_14">
     <g id="svg_15">
      <path id="svg_16" d="m19.833,11.792c7.524,0.937 15.306,0.113 22.885,0.302c4.577,0.114 9.153,0.24 13.73,0.317c4.013,0.068 8.075,-0.506 12.051,-0.286c1.45,0.08 1.442,-2.17 0,-2.25c-3.342,-0.185 -6.723,0.339 -10.089,0.312c-4.578,-0.038 -9.155,-0.172 -13.731,-0.292c-8.209,-0.214 -16.702,0.661 -24.846,-0.353c-1.437,-0.179 -1.42,2.073 0,2.25l0,0z"/>
     </g>
    </g>
    <g id="svg_17">
     <g id="svg_18">
      <path id="svg_19" d="m18.667,90.292c20.961,0.002 41.895,0.672 62.833,0.667c1.451,0 1.451,-2.25 0,-2.25c-20.938,0.006 -41.872,-0.665 -62.833,-0.667c-1.451,0 -1.451,2.25 0,2.25l0,0z"/>
     </g>
    </g>
    <g id="svg_20">
     <g id="svg_21">
      <path id="svg_22" d="m82.458,90c-0.02,-11.581 -0.354,-23.158 -0.367,-34.738c-0.013,-10.383 0.522,-20.799 0.201,-31.095c-0.045,-1.447 -2.295,-1.452 -2.25,0c0.321,10.285 -0.177,20.721 -0.201,31.095c-0.026,11.58 0.348,23.157 0.367,34.738c0.003,1.451 2.253,1.451 2.25,0l0,0z"/>
     </g>
    </g>
    <g id="svg_23">
     <g id="svg_24">
      <path id="svg_25" d="m67.696,11.901c1.491,2.063 3.35,3.739 5.367,5.277c2.66,2.028 4.519,4.557 6.809,6.951c1.004,1.05 2.593,-0.543 1.591,-1.591c-1.82,-1.903 -3.312,-4.068 -5.32,-5.789c-2.264,-1.939 -4.728,-3.525 -6.504,-5.983c-0.842,-1.164 -2.795,-0.043 -1.943,1.135l0,0z"/>
     </g>
    </g>
    <g id="svg_26">
     <g id="svg_27">
      <path id="svg_28" d="m66.208,12.5c0.474,3.98 0.234,8.011 0,12c-0.035,0.596 0.538,1.147 1.125,1.125c4.443,-0.169 8.911,-0.175 13.333,0.333c1.44,0.166 1.424,-2.086 0,-2.25c-4.423,-0.509 -8.89,-0.503 -13.333,-0.333c0.375,0.375 0.75,0.75 1.125,1.125c0.234,-3.989 0.474,-8.02 0,-12c-0.169,-1.422 -2.421,-1.439 -2.25,0l0,0z"/>
     </g>
    </g>
   </g>
   <g id="svg_29">
    <g id="svg_30">
     <path id="svg_31" d="m31.167,62.625c2.948,0.337 5.938,-0.304 8.867,0.293c1.417,0.289 2.02,-1.88 0.599,-2.17c-3.144,-0.641 -6.31,-0.013 -9.466,-0.374c-1.44,-0.164 -1.424,2.088 0,2.251l0,0z"/>
    </g>
   </g>
   <g id="svg_32">
    <g id="svg_33">
     <path id="svg_34" d="m31,38.958c4.826,-0.082 12.184,-2.152 16.205,1.337c3.654,3.171 0.465,9.136 -3.247,10.383c-2.9,0.975 -6.126,0.196 -9.089,0.737c-1.426,0.26 -0.82,2.428 0.598,2.17c3.811,-0.695 8.807,0.723 12.008,-2.204c2.822,-2.581 4.092,-6.199 3.041,-9.919c-2.166,-7.658 -13.964,-4.847 -19.516,-4.754c-1.449,0.025 -1.452,2.275 0,2.25l0,0z"/>
    </g>
   </g>
   <g id="svg_35">
    <g id="svg_36">
     <path id="svg_37" d="m35.958,60.167c-0.196,-3.989 -0.081,-8.032 0.167,-12.017c0.195,-3.136 0.716,-6.772 -0.654,-9.717c-0.611,-1.314 -2.551,-0.171 -1.942,1.136c1.257,2.702 0.463,6.706 0.285,9.581c-0.227,3.647 -0.285,7.368 -0.105,11.018c0.07,1.442 2.321,1.449 2.249,-0.001l0,0z"/>
    </g>
   </g>
   <g id="svg_38">
    <g id="svg_39">
     <path id="svg_40" d="m54.708,57.667c0.612,6.383 14.011,7.355 13.828,0.773c-0.097,-3.47 -2.795,-5.202 -5.762,-6.267c-1.994,-0.716 -6.954,-2.58 -3.256,-5.362c1.979,-1.489 6.775,-1.735 6.574,1.681c0.737,-0.1 1.474,-0.199 2.21,-0.299c-0.017,-0.053 -0.034,-0.106 -0.051,-0.159c-0.442,-1.376 -2.615,-0.788 -2.17,0.598c0.017,0.053 0.034,0.106 0.051,0.159c0.395,1.23 2.135,0.97 2.209,-0.299c0.432,-7.361 -12.654,-5.973 -12.292,0.416c0.191,3.382 3.348,4.455 6.126,5.435c2.01,0.708 6.269,3.383 3.003,5.614c-2.144,1.464 -7.92,0.852 -8.221,-2.29c-0.136,-1.432 -2.387,-1.445 -2.249,0l0,0z"/>
    </g>
   </g>
  </g>
 </g>
</svg>