<?xml version="1.0" standalone="no"?>
<!DOCTYPE svg PUBLIC "-//W3C//DTD SVG 20010904//EN"
 "http://www.w3.org/TR/2001/REC-SVG-20010904/DTD/svg10.dtd">
<svg version="1.0" xmlns="http://www.w3.org/2000/svg"
 width="512.000000pt" height="512.000000pt" viewBox="0 0 512.000000 512.000000"
 preserveAspectRatio="xMidYMid meet">
<metadata>
Created by potrace 1.16, written by Peter Selinger 2001-2019
</metadata>
<g transform="translate(0.000000,512.000000) scale(0.100000,-0.100000)"
fill="#000000" stroke="none">
<path d="M3170 4944 c-261 -56 -487 -234 -605 -477 -67 -138 -85 -229 -85
-425 l0 -163 -54 63 c-86 102 -217 194 -345 243 -134 51 -175 55 -603 55 -473
0 -438 10 -438 -122 0 -286 186 -588 450 -731 176 -96 240 -107 653 -107 l337
0 0 -159 0 -158 -67 -17 c-85 -21 -183 -66 -244 -113 l-47 -36 -123 -1 c-121
-1 -126 -2 -199 -37 -125 -60 -207 -148 -251 -270 l-21 -57 -76 -8 c-140 -13
-331 9 -467 53 -27 8 -115 46 -195 83 -211 99 -338 134 -532 147 l-98 6 0
-1256 c0 -1244 0 -1257 20 -1277 20 -20 33 -20 2420 -20 2387 0 2400 0 2420
20 20 20 20 33 20 1254 l0 1235 -27 21 c-26 21 -35 22 -138 17 -200 -11 -329
-45 -538 -144 -250 -117 -338 -138 -582 -137 -227 0 -356 30 -547 125 -48 24
-61 37 -88 87 -82 155 -241 272 -422 312 l-58 13 0 518 0 518 368 4 c413 4
417 5 579 82 290 141 493 449 493 753 0 132 36 122 -442 121 -305 0 -419 -4
-468 -15z m740 -152 c0 -5 -9 -43 -20 -86 -63 -248 -264 -449 -517 -518 -70
-18 -113 -21 -400 -25 -201 -3 -323 -2 -323 4 0 38 47 178 82 246 58 113 181
236 293 294 94 48 175 74 265 83 95 10 620 11 620 2z m-1970 -741 c253 -74
447 -272 510 -517 11 -43 20 -82 20 -87 0 -6 -122 -7 -327 -4 -299 4 -335 7
-403 26 -253 74 -447 272 -510 517 -11 43 -20 82 -20 87 0 6 122 7 328 4 298
-4 334 -7 402 -26z m762 -1281 c58 -18 164 -77 155 -86 -2 -2 -26 0 -53 6 -84
17 -294 23 -393 11 -114 -13 -140 -4 -86 29 98 60 257 77 377 40z m-729 -190
c-125 -59 -233 -103 -240 -97 -2 3 18 27 46 55 64 64 131 91 226 91 l70 0
-102 -49z m507 -372 l0 -333 -73 -105 -72 -104 -577 -231 c-317 -127 -580
-234 -584 -238 -4 -3 6 -40 22 -82 25 -65 31 -74 49 -69 11 4 220 87 464 185
245 98 445 178 446 176 1 -1 -43 -68 -99 -148 l-101 -146 -180 -33 c-99 -18
-183 -36 -187 -39 -8 -7 15 -148 26 -158 3 -3 47 2 97 11 50 9 93 15 96 13 2
-3 -41 -70 -97 -150 -55 -80 -100 -148 -100 -150 0 -3 30 -26 66 -52 55 -40
68 -45 79 -34 7 8 174 248 370 534 197 286 377 548 402 582 l44 62 68 -72 c37
-40 84 -91 105 -114 l37 -41 -71 -281 c-38 -154 -70 -284 -70 -289 0 -12 150
-46 160 -36 4 5 31 106 60 224 29 118 56 218 59 222 5 6 439 -451 583 -614
l36 -41 61 53 c34 30 60 59 59 66 -2 7 -79 94 -172 194 -92 99 -167 182 -165
184 2 2 103 29 224 60 121 31 225 59 231 61 15 4 -26 165 -41 165 -5 0 -129
-32 -273 -70 -145 -39 -269 -70 -275 -69 -7 0 -132 131 -279 290 l-268 289 0
329 0 329 48 -5 c154 -15 255 -45 449 -136 241 -113 366 -142 623 -142 259 0
382 28 632 146 156 73 276 113 373 124 33 3 72 9 88 11 l27 6 0 -1111 0 -1111
-2280 0 -2280 0 0 1105 c0 692 4 1105 10 1105 19 0 117 -22 185 -42 39 -11
135 -51 215 -88 249 -117 371 -145 630 -145 259 0 381 28 630 145 187 87 278
115 445 134 17 1 33 4 38 5 4 0 7 -149 7 -331z"/>
<path d="M3200 1920 l0 -80 80 0 80 0 0 80 0 80 -80 0 -80 0 0 -80z"/>
<path d="M560 1840 l0 -80 80 0 80 0 0 80 0 80 -80 0 -80 0 0 -80z"/>
<path d="M4160 1840 l0 -80 80 0 80 0 0 80 0 80 -80 0 -80 0 0 -80z"/>
<path d="M960 1600 l0 -80 80 0 80 0 0 80 0 80 -80 0 -80 0 0 -80z"/>
<path d="M4400 1440 l0 -80 80 0 80 0 0 80 0 80 -80 0 -80 0 0 -80z"/>
<path d="M720 640 l0 -80 80 0 80 0 0 80 0 80 -80 0 -80 0 0 -80z"/>
<path d="M4080 640 l0 -80 80 0 80 0 0 80 0 80 -80 0 -80 0 0 -80z"/>
</g>
</svg>
