<svg xmlns="http://www.w3.org/2000/svg" width="41" height="40" fill="none" viewBox="0 0 41 40"><path fill="#4E6B43" d="M36.7495 11.9824L28.5172 3.74987C28.0479 3.28191 27.4122 3.01914 26.7494 3.01917C26.0867 3.01919 25.451 3.28202 24.9817 3.75002L14.6156 14.1161L8.99108 19.7408L8.99061 19.7411L8.99015 19.7416L4.24968 24.4822C4.01751 24.7143 3.83334 24.9899 3.70769 25.2932C3.58203 25.5965 3.51735 25.9216 3.51733 26.2499C3.51732 26.5782 3.58197 26.9033 3.7076 27.2066C3.83323 27.5099 4.01738 27.7855 4.24952 28.0177L12.4819 36.2502C12.9512 36.7181 13.5869 36.9808 14.2496 36.9808C14.9124 36.9808 15.5481 36.718 16.0173 36.25L36.7495 15.5177C36.9817 15.2855 37.1658 15.01 37.2915 14.7066C37.4171 14.4033 37.4818 14.0782 37.4818 13.7499C37.4818 13.4216 37.4171 13.0966 37.2915 12.7932C37.1658 12.4899 36.9817 12.2143 36.7495 11.9822V11.9824ZM34.9819 13.7499L34.9817 13.75L14.2495 34.4824L6.01733 26.25L9.87452 22.3928L13.9906 26.5089C14.225 26.7434 14.543 26.8751 14.8745 26.8751C15.2061 26.8751 15.524 26.7434 15.7584 26.5089C15.9929 26.2745 16.1246 25.9566 16.1246 25.625C16.1246 25.2935 15.9929 24.9755 15.7584 24.7411L11.6423 20.625L15.4995 16.7678L19.6156 20.8839C19.85 21.1184 20.168 21.2501 20.4995 21.2501C20.8311 21.2501 21.149 21.1184 21.3834 20.8839C21.6179 20.6495 21.7496 20.3316 21.7496 20C21.7496 19.6685 21.6179 19.3505 21.3834 19.1161L17.2673 15L21.1245 11.1428L25.2406 15.2589C25.475 15.4934 25.793 15.6251 26.1245 15.6251C26.4561 15.6251 26.774 15.4934 27.0084 15.2589C27.2429 15.0245 27.3746 14.7066 27.3746 14.375C27.3746 14.0435 27.2429 13.7255 27.0084 13.4911L22.8923 9.37502L26.7495 5.51768L34.9828 13.7488L34.9819 13.7499Z"/></svg>