<svg width="44" height="42" viewBox="0 0 44 42" fill="none" xmlns="http://www.w3.org/2000/svg">
<path d="M19.3356 19.6665C20.5737 19.6663 21.7994 19.9125 22.9415 20.3907C24.0835 20.8689 25.119 21.5695 25.9876 22.4518C26.8562 23.3341 27.5407 24.3804 28.001 25.5297C28.4613 26.6791 28.6883 27.9085 28.6689 29.1465C28.6658 29.3515 28.7099 29.5544 28.798 29.7395C28.886 29.9246 29.0156 30.087 29.1765 30.2139C29.3375 30.3408 29.5256 30.4289 29.7261 30.4713C29.9267 30.5138 30.1343 30.5094 30.3329 30.4585C30.9242 30.307 31.5423 30.2926 32.14 30.4163C32.7377 30.54 33.2992 30.7986 33.7818 31.1724C34.2644 31.5462 34.6552 32.0252 34.9245 32.573C35.1937 33.1207 35.3344 33.7228 35.3356 34.3332C35.3356 35.394 34.9141 36.4115 34.164 37.1616C33.4138 37.9117 32.3964 38.3332 31.3356 38.3332H8.66889C7.95983 38.3292 7.25869 38.1838 6.60647 37.9056C5.95425 37.6274 5.36406 37.2219 4.87042 36.7129C4.37677 36.2039 3.98958 35.6016 3.7315 34.9411C3.47341 34.2807 3.34962 33.5754 3.36735 32.8666C3.38508 32.1577 3.54398 31.4595 3.83476 30.8128C4.12554 30.1661 4.54235 29.5839 5.06083 29.1002C5.57931 28.6165 6.18903 28.241 6.85434 27.9958C7.51965 27.7505 8.22718 27.6404 8.93556 27.6718C9.24282 27.6877 9.54609 27.5967 9.79396 27.4145C10.0418 27.2322 10.219 26.9698 10.2956 26.6718C10.8128 24.6673 11.9814 22.8915 13.6178 21.6235C15.2541 20.3554 17.2654 19.667 19.3356 19.6665ZM31.2636 27.6665C30.9635 24.9629 29.7538 22.4414 27.8328 20.5155C25.9117 18.5896 23.3933 17.3735 20.6905 17.0666C17.9876 16.7597 15.2607 17.3803 12.9568 18.8266C10.6529 20.2728 8.90869 22.4589 8.01022 25.0265C5.9514 25.195 4.03756 26.1534 2.66933 27.701C1.30109 29.2486 0.584533 31.2655 0.669641 33.3294C0.754749 35.3934 1.63493 37.3444 3.12593 38.7741C4.61694 40.2039 6.60318 41.0014 8.66889 40.9998H31.3356C33.1037 40.9998 34.7994 40.2975 36.0496 39.0472C37.2998 37.797 38.0022 36.1013 38.0022 34.3332C38.0022 32.5651 37.2998 30.8694 36.0496 29.6191C34.7994 28.3689 33.1037 27.6665 31.3356 27.6665H31.2636Z" fill="#4E6B43" stroke="black" stroke-width="0.3"/>
<path d="M28.6705 2.33333C28.6705 1.97971 28.53 1.64057 28.28 1.39052C28.0299 1.14048 27.6908 1 27.3371 1C26.9835 1 26.6444 1.14048 26.3943 1.39052C26.1443 1.64057 26.0038 1.97971 26.0038 2.33333V5C26.0038 5.35362 26.1443 5.69276 26.3943 5.94281C26.6444 6.19286 26.9835 6.33333 27.3371 6.33333C27.6908 6.33333 28.0299 6.19286 28.28 5.94281C28.53 5.69276 28.6705 5.35362 28.6705 5V2.33333ZM38.6518 7.57067C38.7792 7.44767 38.8807 7.30055 38.9506 7.13787C39.0205 6.9752 39.0573 6.80024 39.0588 6.6232C39.0604 6.44616 39.0266 6.27059 38.9596 6.10673C38.8925 5.94287 38.7935 5.794 38.6683 5.66881C38.5432 5.54362 38.3943 5.44461 38.2304 5.37757C38.0666 5.31053 37.891 5.2768 37.7139 5.27833C37.5369 5.27987 37.3619 5.31665 37.1993 5.38653C37.0366 5.45641 36.8895 5.55799 36.7665 5.68533L34.8785 7.57067C34.6281 7.82103 34.4875 8.1606 34.4875 8.51467C34.4875 8.86874 34.6281 9.2083 34.8785 9.45867C35.1288 9.70903 35.4684 9.84969 35.8225 9.84969C36.1765 9.84969 36.5161 9.70903 36.7665 9.45867L38.6518 7.57067ZM17.9078 5.68533C17.6563 5.44246 17.3195 5.30806 16.9699 5.3111C16.6203 5.31414 16.2859 5.45436 16.0387 5.70158C15.7915 5.94879 15.6513 6.2832 15.6482 6.6328C15.6452 6.9824 15.7796 7.3192 16.0225 7.57067L17.9078 9.45867C18.0318 9.58263 18.1789 9.68097 18.3409 9.74806C18.5029 9.81515 18.6765 9.84969 18.8518 9.84969C19.0271 9.84969 19.2007 9.81515 19.3627 9.74806C19.5247 9.68097 19.6718 9.58263 19.7958 9.45867C19.9198 9.3347 20.0181 9.18753 20.0852 9.02556C20.1523 8.86359 20.1868 8.68999 20.1868 8.51467C20.1868 8.33935 20.1523 8.16575 20.0852 8.00378C20.0181 7.84181 19.9198 7.69464 19.7958 7.57067L17.9078 5.68533ZM22.5318 14.6827C22.8632 13.9958 23.3381 13.3881 23.9244 12.9004C24.5107 12.4127 25.1947 12.0564 25.9304 11.8555C26.6661 11.6546 27.4363 11.6139 28.1891 11.736C28.9419 11.8581 29.6597 12.1402 30.2942 12.5633C30.9286 12.9864 31.465 13.5407 31.8671 14.1887C32.2691 14.8367 32.5275 15.5634 32.6249 16.3198C32.7222 17.0762 32.6562 17.8447 32.4313 18.5734C32.2064 19.3021 31.8278 19.974 31.3211 20.544C31.8518 21.2933 32.3131 22.096 32.6971 22.9387C33.6009 22.1221 34.3062 21.11 34.7594 19.9795C35.2126 18.849 35.4017 17.63 35.3123 16.4153C35.2228 15.2006 34.8572 14.0224 34.2433 12.9705C33.6294 11.9185 32.7835 11.0206 31.7699 10.3453C30.7563 9.66992 29.6019 9.2349 28.3947 9.07339C27.1875 8.91188 25.9594 9.02814 24.8039 9.41332C23.6484 9.7985 22.5962 10.4424 21.7274 11.296C20.8585 12.1495 20.1961 13.1902 19.7905 14.3387C20.7291 14.368 21.6465 14.4853 22.5318 14.6827ZM34.4891 25.5467C36.0891 26.12 37.4891 27.12 38.5478 28.4053C38.693 28.2878 38.8118 28.141 38.8967 27.9746C38.9815 27.8081 39.0304 27.6257 39.0402 27.4391C39.05 27.2526 39.0205 27.0661 38.9536 26.8916C38.8867 26.7172 38.7839 26.5588 38.6518 26.4267L36.7665 24.5413C36.5764 24.3501 36.3328 24.221 36.0679 24.1711C35.8029 24.1211 35.5291 24.1527 35.2824 24.2616C35.0358 24.3705 34.8279 24.5516 34.6863 24.781C34.5447 25.0104 34.4759 25.2774 34.4891 25.5467ZM39.3371 15.6667C38.9835 15.6667 38.6444 15.8071 38.3943 16.0572C38.1443 16.3072 38.0038 16.6464 38.0038 17C38.0038 17.3536 38.1443 17.6928 38.3943 17.9428C38.6444 18.1929 38.9835 18.3333 39.3371 18.3333H42.0038C42.3574 18.3333 42.6966 18.1929 42.9466 17.9428C43.1967 17.6928 43.3372 17.3536 43.3372 17C43.3372 16.6464 43.1967 16.3072 42.9466 16.0572C42.6966 15.8071 42.3574 15.6667 42.0038 15.6667H39.3371Z" fill="#4E6B43" stroke="black" stroke-width="0.3"/>
</svg>
