<svg xmlns="http://www.w3.org/2000/svg" width="21" height="40" fill="none" viewBox="0 0 21 40"><path fill="#4E6B43" d="M3.30554 7.19451C3.30554 5.28641 4.06353 3.45645 5.41277 2.10722C6.762 0.757991 8.59195 0 10.5001 0C12.4082 0 14.2381 0.757991 15.5873 2.10722C16.9366 3.45645 17.6946 5.28641 17.6946 7.19451V22.8785C19.0826 24.2952 20.0215 26.0902 20.3936 28.0383C20.7656 29.9865 20.5542 32.0011 19.7859 33.8296C19.0175 35.6581 17.7265 37.2191 16.0745 38.3168C14.4226 39.4144 12.4834 40 10.5001 40C8.51669 40 6.57747 39.4144 4.92556 38.3168C3.27365 37.2191 1.98258 35.6581 1.21424 33.8296C0.445897 32.0011 0.234491 29.9865 0.606526 28.0383C0.978561 26.0902 1.91748 24.2952 3.30554 22.8785V7.19451ZM10.5001 2.8778C9.35519 2.8778 8.25722 3.3326 7.44768 4.14214C6.63814 4.95168 6.18335 6.04965 6.18335 7.19451V24.1361L5.70563 24.5678C4.61947 25.5391 3.85384 26.8174 3.51007 28.2334C3.1663 29.6493 3.26059 31.1363 3.78046 32.4976C4.30034 33.8588 5.22129 35.0301 6.42144 35.8564C7.62159 36.6828 9.04437 37.1252 10.5015 37.1252C11.9586 37.1252 13.3814 36.6828 14.5815 35.8564C15.7817 35.0301 16.7026 33.8588 17.2225 32.4976C17.7424 31.1363 17.8367 29.6493 17.4929 28.2334C17.1491 26.8174 16.3835 25.5391 15.2973 24.5678L14.8168 24.1333V7.19451C14.8168 6.04965 14.362 4.95168 13.5524 4.14214C12.7429 3.3326 11.6449 2.8778 10.5001 2.8778ZM11.939 14.389C11.939 14.0074 11.7874 13.6414 11.5175 13.3716C11.2477 13.1017 10.8817 12.9501 10.5001 12.9501C10.1184 12.9501 9.75244 13.1017 9.48259 13.3716C9.21275 13.6414 9.06115 14.0074 9.06115 14.389V26.1448C8.10109 26.4843 7.29194 27.1522 6.7767 28.0305C6.26147 28.9088 6.07332 29.941 6.24551 30.9446C6.41771 31.9483 6.93916 32.8587 7.71771 33.5151C8.49625 34.1714 9.48176 34.5314 10.5001 34.5314C11.5183 34.5314 12.5039 34.1714 13.2824 33.5151C14.0609 32.8587 14.5824 31.9483 14.7546 30.9446C14.9268 29.941 14.7386 28.9088 14.2234 28.0305C13.7082 27.1522 12.899 26.4843 11.939 26.1448V14.389Z"/></svg>