<svg width="33" height="40" viewBox="0 0 33 40" fill="none" xmlns="http://www.w3.org/2000/svg">
<path fill-rule="evenodd" clip-rule="evenodd" d="M16.5 0C16.888 0 17.2584 0.161517 17.5224 0.445782L22.9308 6.26904L22.9312 6.26947C23.0771 6.42673 23.2242 6.58498 23.3723 6.74424C25.4468 8.97603 27.7047 11.405 29.4686 14.0433C31.37 16.8872 32.7791 20.0885 32.7791 23.7209C32.7791 28.0384 31.064 32.1791 28.0111 35.232C24.9581 38.2849 20.8175 40 16.5 40C12.1825 40 8.04189 38.2849 4.98898 35.232C1.93606 32.1791 0.220947 28.0384 0.220947 23.7209C0.220947 20.0876 1.63001 16.8859 3.53144 14.0419C5.29647 11.4019 7.55599 8.97205 9.63165 6.73988C9.77844 6.58203 9.92431 6.42516 10.069 6.26928L10.0692 6.26904L15.4776 0.445782C15.7416 0.161517 16.1121 0 16.5 0ZM16.5 3.44576L12.1143 8.16793C12.1142 8.16801 12.1141 8.16809 12.1141 8.16817C11.9802 8.31235 11.8462 8.45649 11.7122 8.60065C9.60128 10.8718 7.48696 13.1466 5.85139 15.593C4.12351 18.1774 3.01165 20.8389 3.01165 23.7209C3.01165 27.2983 4.43274 30.7291 6.9623 33.2587C9.49186 35.7882 12.9227 37.2093 16.5 37.2093C20.0774 37.2093 23.5082 35.7882 26.0377 33.2587C28.5673 30.7291 29.9884 27.2983 29.9884 23.7209C29.9884 20.8399 28.8766 18.1789 27.1486 15.5944C25.5141 13.1495 23.4014 10.8757 21.2918 8.60511C21.1565 8.45946 21.0211 8.31383 20.886 8.16817C20.8858 8.16803 20.8857 8.16788 20.8856 8.16774L16.5 3.44576Z" fill="#4E6B43"/>
</svg>
