<svg xmlns="http://www.w3.org/2000/svg" width="512" height="640" enable-background="new 0 0 512 512" version="1.1" xml:space="preserve"><g><title>Layer 1</title><g id="svg_1" stroke="null"><path id="svg_2" stroke="null" d="m472.673,161.46231c-28.78922,-28.70064 -62.36189,-9.56688 -71.92877,0l-13.90741,13.90741l0,-131.36745l-228.8079,0l-120.02892,119.94034l0,330.05739l348.74824,0l0,-174.9499l85.83618,-85.7476c9.65546,-9.56688 29.14355,-42.78522 0.08858,-71.84019zm-318.89603,-92.65701l0,90.88537l-90.97395,0l90.97395,-90.88537zm218.44378,410.66722l-319.69327,0l0,-305.34295l115.77697,0l0,-115.59981l203.91629,0l0,131.36745l-28.34631,28.34631l-145.98351,0l0,14.4389l131.54461,0l-58.10994,58.02136l-189.74314,0l0,14.61607l175.12707,0l-58.10994,58.02136l-117.01713,0l0,14.52749l106.47584,0l-5.66926,73.52325l77.95236,-6.02359l111.96794,-111.79077l0,145.89493l-0.08858,0zm-170.78654,-86.45626l39.33051,39.24193l-42.60805,3.27754l3.27754,-42.51947zm55.62964,35.07856l-51.37769,-51.28911l200.19584,-199.93009l51.37769,51.28911l-200.19584,199.93009zm209.93988,-210.73712l-50.31471,-50.22612c5.66926,-3.72045 27.63766,-13.4645 45.70843,4.60628c18.77943,18.69085 8.50389,39.77342 4.60628,45.61985l0,-0.00001z"/><polygon id="svg_3" stroke="null" points="246.788 397.268 426.433 217.889 416.158 207.614 236.513 386.993"/><rect id="svg_4" width="145.363" height="14.527" x="197.891" y="87.585" stroke="null"/><rect id="svg_5" width="145.363" height="14.527" x="197.891" y="152.87" stroke="null"/><rect id="svg_6" width="14.527" height="14.527" x="81.582" y="435.979" stroke="null"/><rect id="svg_7" width="14.527" height="14.527" x="110.637" y="435.979" stroke="null"/><rect id="svg_8" width="14.527" height="14.527" x="139.692" y="435.979" stroke="null"/></g></g></svg>